<svg width="384" height="512" viewBox="0 0 384 512" fill="none" xmlns="http://www.w3.org/2000/svg">
<path d="M64 0C28.7 0 0 28.7 0 64V448C0 483.3 28.7 512 64 512H320C355.3 512 384 483.3 384 448V160H256C238.3 160 224 145.7 224 128V0H64ZM256 0V128H384L256 0ZM216 408C216 421.3 205.3 432 192 432C178.7 432 168 421.3 168 408V305.9L137 336.9C127.6 346.3 112.4 346.3 103.1 336.9C93.8 327.5 93.7 312.3 103.1 303L175.1 231C184.5 221.6 199.7 221.6 209 231L281 303C290.4 312.4 290.4 327.6 281 336.9C271.6 346.2 256.4 346.3 247.1 336.9L216.1 305.9V408H216Z" fill="white"/>
</svg>
